<mxfile host="app.diagrams.net" modified="2024-04-11T03:56:53.671Z" agent="Mozilla/5.0 (Macintosh; Intel Mac OS X 10_15_7) AppleWebKit/537.36 (KHTML, like Gecko) Chrome/123.0.0.0 Safari/537.36" version="24.2.3" etag="H2Dfqq6vwm3UA6ZKG7iu" type="github">
  <diagram name="Page-1" id="1MyumCWGgVIu5zAcP8XF">
    <mxGraphModel>
      <root>
        <mxCell id="0" />
        <mxCell id="1" parent="0" />
      </root>
    </mxGraphModel>
  </diagram>
</mxfile>
